<svg xmlns="http://www.w3.org/2000/svg" version="1.1" xmlns:xlink="http://www.w3.org/1999/xlink" xmlns:svgjs="http://svgjs.dev/svgjs" width="1500" height="1500" viewBox="0 0 1500 1500"><rect width="1500" height="1500" fill="#000000"></rect><g transform="matrix(0.6666666666666666,0,0,0.6666666666666666,249.39393939393938,510.13387390350886)"><svg viewBox="0 0 396 190" data-background-color="#000000" preserveAspectRatio="xMidYMid meet" height="719" width="1500" xmlns="http://www.w3.org/2000/svg" xmlns:xlink="http://www.w3.org/1999/xlink"><g id="tight-bounds" transform="matrix(1,0,0,1,0.2400000000000091,0.07906249999999204)"><svg viewBox="0 0 395.52 189.84187500000002" height="189.84187500000002" width="395.52"><g><svg viewBox="0 0 395.52 189.84187500000002" height="189.84187500000002" width="395.52"><g><svg viewBox="0 0 395.52 189.84187500000002" height="189.84187500000002" width="395.52"><g id="textblocktransform"><svg viewBox="0 0 395.52 189.84187500000002" height="189.84187500000002" width="395.52" id="textblock"><g><svg viewBox="0 0 395.52 189.84187500000002" height="189.84187500000002" width="395.52"><g transform="matrix(1,0,0,1,0,0)"><svg width="395.52" viewBox="0.9 -37.1 102.39 49.150000000000006" height="189.84187500000002" data-palette-color="#ffffff"><g class="wordmark-text-0" data-fill-palette-color="primary" id="text-0"><path d="M13.65 0.6L22.3-1.55 22.25-0.85Q23.8 0.55 25.55 1.58 27.3 2.6 29.1 3.15 30.9 3.7 32.45 3.7L32.45 3.7Q33.55 3.7 34.58 3.58 35.6 3.45 36.27 3.33 36.95 3.2 36.95 3.2L36.95 3.2 37.45 3.75 37.9 7.05Q37.9 7.05 37.13 7.55 36.35 8.05 35.18 8.8 34 9.55 32.7 10.3 31.4 11.05 30.3 11.55 29.2 12.05 28.65 12.05L28.65 12.05Q27.15 12.05 25.85 11.6 24.55 11.15 22.95 9.95 21.35 8.75 19.15 6.5 16.95 4.25 13.65 0.6L13.65 0.6ZM15.45-5.6L15.45-5.6Q17.25-5.6 18.38-7.08 19.5-8.55 20.03-11.73 20.55-14.9 20.55-20L20.55-20Q20.55-22.1 20.18-23.48 19.8-24.85 19.03-25.53 18.25-26.2 17.1-26.2L17.1-26.2Q15.4-26.2 14.3-24.73 13.2-23.25 12.68-20.08 12.15-16.9 12.15-11.8L12.15-11.8Q12.15-9.7 12.5-8.33 12.85-6.95 13.6-6.28 14.35-5.6 15.45-5.6ZM14.15 0.6L14.15 0.6Q10.05 0.6 7.08-0.95 4.1-2.5 2.5-5.5 0.9-8.5 0.9-12.8L0.9-12.8Q0.9-17.6 2.05-21.35 3.2-25.1 5.43-27.68 7.65-30.25 10.95-31.6 14.25-32.95 18.6-32.95L18.6-32.95Q22.8-32.95 25.75-31.48 28.7-30 30.28-27.1 31.85-24.2 31.85-19.9L31.85-19.9Q31.85-15.1 30.7-11.3 29.55-7.5 27.28-4.85 25-2.2 21.73-0.8 18.45 0.6 14.15 0.6ZM40.5 0.45L40.5 0.45Q37.2 0.45 35.37-0.98 33.55-2.4 33.55-4.9L33.55-4.9Q33.55-5.65 33.85-6.93 34.15-8.2 34.57-9.68 35-11.15 35.4-12.63 35.8-14.1 36.1-15.35 36.4-16.6 36.4-17.3L36.4-17.3Q36.4-18.95 34.75-18.95L34.75-18.95 33.35-18.95 33.95-23.05Q35.15-23.05 36.87-23.13 38.6-23.2 40.72-23.35 42.85-23.5 45.1-23.65L45.1-23.65 45.9-22.65Q44.8-18.85 43.97-15.93 43.15-13 42.7-11.2 42.25-9.4 42.25-8.95L42.25-8.95Q42.25-8.4 42.37-8.13 42.5-7.85 42.9-7.85L42.9-7.85Q43.5-7.85 44.5-9.45 45.5-11.05 46.82-14.15 48.15-17.25 49.75-21.75L49.75-21.75 47.7-8.45 46.45-8.75Q44.9-5.2 43.45-2.9 42-0.6 40.5 0.45ZM47.95 0.6L47.95 0.6Q45.4 0.6 45.4-1.8L45.4-1.8Q45.4-2.1 45.47-2.53 45.55-2.95 45.75-3.85 45.95-4.75 46.35-6.48 46.75-8.2 47.45-11.05L47.45-11.05 48-14.85 49.05-23.1 50.05-23.7 57.4-23.65 58.15-22.65Q57.5-20.6 56.82-18.15 56.15-15.7 55.6-13.3 55.05-10.9 54.65-8.9L54.65-8.9 54.85-8.7Q55.1-8.85 55.35-9 55.6-9.15 55.87-9.35 56.15-9.55 56.4-9.75L56.4-9.75 57.55-9.55 58.55-7.15Q55.8-4.1 53.97-2.43 52.15-0.75 50.77-0.08 49.4 0.6 47.95 0.6ZM68.94-7.85L69.14-7.7Q69.39-7.7 69.77-8.03 70.14-8.35 71.75-9.75L71.75-9.75 72.89-9.55 73.89-7.15Q71.34-4.25 69.52-2.55 67.69-0.85 66.25-0.13 64.8 0.6 63.39 0.6L63.39 0.6Q60.09 0.6 60.09-2.75L60.09-2.75Q60.84-7.2 61.34-10.3 61.84-13.4 62.09-15.18 62.34-16.95 62.34-17.3L62.34-17.3Q62.34-18.15 61.95-18.55 61.55-18.95 60.7-18.95L60.7-18.95 59.3-18.95 59.89-23.05Q61.14-23.05 62.97-23.13 64.8-23.2 66.89-23.35 69-23.5 71.05-23.65L71.05-23.65 71.84-22.65Q71.3-20.55 70.75-17.93 70.19-15.3 69.72-12.68 69.25-10.05 68.94-7.85L68.94-7.85ZM67-26.15L67-26.15Q65-26.15 63.92-27.2 62.84-28.25 62.84-30.15L62.84-30.15Q62.84-32.85 64.42-34.48 66-36.1 68.59-36.1L68.59-36.1Q70.59-36.1 71.64-35.02 72.69-33.95 72.69-32.05L72.69-32.05Q72.69-29.4 71.12-27.78 69.55-26.15 67-26.15ZM83.49-7.85L83.69-7.7Q83.94-7.7 84.32-8.03 84.69-8.35 86.29-9.75L86.29-9.75 87.44-9.55 88.44-7.15Q85.79-4.15 83.97-2.45 82.14-0.75 80.74-0.08 79.34 0.6 77.94 0.6L77.94 0.6Q74.64 0.6 74.64-2.75L74.64-2.75Q74.64-3.1 74.89-4.75 75.14-6.4 75.52-8.83 75.89-11.25 76.37-14.08 76.84-16.9 77.32-19.73 77.79-22.55 78.17-24.95 78.54-27.35 78.79-28.9 79.04-30.45 79.04-30.75L79.04-30.75Q79.04-32.4 77.39-32.4L77.39-32.4 75.99-32.4 76.59-36.5Q78.29-36.5 80.27-36.6 82.24-36.7 83.99-36.8 85.74-36.9 86.84-37 87.94-37.1 87.94-37.1L87.94-37.1 88.74-36.1Q88.74-36.1 88.44-34.58 88.14-33.05 87.62-30.48 87.09-27.9 86.49-24.8 85.89-21.7 85.32-18.53 84.74-15.35 84.24-12.55 83.74-9.75 83.49-7.85L83.49-7.85ZM98.04-7.85L98.24-7.7Q98.49-7.7 98.87-8.03 99.24-8.35 100.84-9.75L100.84-9.75 101.99-9.55 102.99-7.15Q100.34-4.15 98.52-2.45 96.69-0.75 95.29-0.08 93.89 0.6 92.49 0.6L92.49 0.6Q89.19 0.6 89.19-2.75L89.19-2.75Q89.19-3.1 89.44-4.75 89.69-6.4 90.06-8.83 90.44-11.25 90.92-14.08 91.39-16.9 91.87-19.73 92.34-22.55 92.72-24.95 93.09-27.35 93.34-28.9 93.59-30.45 93.59-30.75L93.59-30.75Q93.59-32.4 91.94-32.4L91.94-32.4 90.54-32.4 91.14-36.5Q92.84-36.5 94.81-36.6 96.79-36.7 98.54-36.8 100.29-36.9 101.39-37 102.49-37.1 102.49-37.1L102.49-37.1 103.29-36.1Q103.29-36.1 102.99-34.58 102.69-33.05 102.17-30.48 101.64-27.9 101.04-24.8 100.44-21.7 99.87-18.53 99.29-15.35 98.79-12.55 98.29-9.75 98.04-7.85L98.04-7.85Z" fill="#ffffff" data-fill-palette-color="primary"></path></g></svg></g></svg></g></svg></g></svg></g></svg></g><defs></defs></svg><rect width="395.52" height="189.84187500000002" fill="none" stroke="none" visibility="hidden"></rect></g></svg></g></svg>